<svg width="43" height="39" viewBox="0 0 43 39" fill="none" xmlns="http://www.w3.org/2000/svg">
<g clip-path="url(#clip0_489_2057)">
<path d="M0.6934 38.0363L0.477539 37.8406V27.7073V17.5739L0.6934 17.3782C0.835132 17.2497 1.00866 17.1825 1.19869 17.1825C1.4658 17.1825 2.34407 17.9585 12.5914 27.2492C22.8388 36.5398 23.6947 37.3361 23.6947 37.5782C23.6947 37.7505 23.6206 37.9078 23.4788 38.0363L23.263 38.232H12.0861H0.909266L0.6934 38.0363ZM21.2323 36.9362C21.2323 36.9252 16.8791 32.9695 11.5585 28.1458L1.88464 19.3754V28.1659V36.9563H11.5585C16.8791 36.9563 21.2323 36.9473 21.2323 36.9362ZM4.9147 34.2091L4.69884 34.0134V30.5777V27.1419L4.9147 26.9462C5.0562 26.8179 5.23001 26.7505 5.41923 26.7505C5.68229 26.7505 6.03741 27.0492 9.42466 30.1202C12.8119 33.1913 13.1415 33.5132 13.1415 33.7517C13.1415 33.9233 13.0671 34.0809 12.9256 34.2091L12.7097 34.4049H8.92015H5.13057L4.9147 34.2091ZM10.679 33.1086C10.679 33.0973 9.65008 32.1557 8.39248 31.0162L6.10594 28.9443V31.0367V33.1291H8.39248C9.65008 33.1291 10.679 33.1199 10.679 33.1086ZM22.2876 33.7696V33.1291L28.0699 33.1286C32.0157 33.1283 33.964 33.1002 34.204 33.0402C34.6769 32.9218 35.4264 32.2423 35.557 31.8135C35.6104 31.6381 35.6543 31.2882 35.6546 31.0361L35.6551 30.5777H27.4284H19.2016L18.9858 30.382L18.7699 30.1862V27.3883V24.5904L18.9858 24.3947L19.2016 24.199H27.4284H35.6551V17.6419V11.0848L34.248 12.3586L32.8409 13.6325V18.0822V22.5319L32.625 22.7276L32.4092 22.9233H24.3983H16.3874L16.1715 22.7276C15.9583 22.5342 15.9557 22.5144 15.9557 21.093V19.6542H15.6577C15.2107 19.6542 13.8821 19.2845 13.1854 18.9662C11.1576 18.0398 9.718 16.3863 9.13275 14.3112C8.86883 13.3754 8.90881 11.7888 9.21998 10.85C9.64325 9.57304 10.2442 8.64078 11.2039 7.7725C12.2249 6.84869 13.4752 6.21994 14.9564 5.88542C15.8536 5.68279 17.6272 5.70435 18.55 5.9291C20.7221 6.45809 22.5549 7.78998 23.5297 9.54774L23.8726 10.166H26.4444H29.0162L32.3356 7.15566L35.6551 4.14535L35.6545 3.50787C35.6543 3.15726 35.6104 2.72687 35.557 2.55146C35.4264 2.12267 34.6769 1.44314 34.204 1.32479C33.7068 1.20037 9.46129 1.20037 8.96412 1.32479C8.49117 1.44314 7.74167 2.12267 7.61112 2.55146C7.54313 2.77478 7.51388 5.39808 7.51353 11.3022L7.51301 19.734H6.80756H6.10212L6.126 11.0588L6.14988 2.38362C6.66318 0.853069 7.55564 0.269028 8.78819 0H21.584H34.3798L34.9727 0.254598C36.0023 0.69679 36.82 1.632 36.951 2.51698C36.9765 2.68943 37.0174 2.83053 37.042 2.83053C37.0665 2.83053 37.4012 2.55799 37.7857 2.2249C38.6871 1.44415 39.0831 1.27591 40.0083 1.28072C40.8293 1.28498 41.3731 1.4923 41.9117 2.00637C42.4557 2.52564 42.6368 2.93807 42.6412 3.66772C42.6476 4.71787 42.6117 4.76342 39.6528 7.45575L37.0621 9.81303V17.006V24.199H39.6605H42.2588L42.4747 24.3947L42.6905 24.5904V27.3883V30.1862L42.4747 30.382L42.2588 30.5777H39.6727H37.0865L37.0411 31.3001C37.002 31.9221 36.9516 32.1034 36.6785 32.6044C36.2948 33.3083 35.7765 33.7651 34.9673 34.1127L34.3798 34.365L28.3337 34.3875L22.2876 34.4101L22.2876 33.7696ZM41.2835 27.3883V25.4747H40.5799H39.8764V26.1126V26.7505H39.1728H38.4693V26.1126V25.4747H37.7657H37.0622V26.1126V26.7505H36.3586H35.6551V26.1126V25.4747H34.9515H34.248V26.1126V26.7505H33.5444H32.8409V26.1126V25.4747H32.1373H31.4338V26.1126V26.7505H30.7302H30.0267V26.1126V25.4747H29.3231H28.6196V26.1126V26.7505H27.916H27.2125V26.1126V25.4747H26.5089H25.8054V26.1126V26.7505H25.1018H24.3983V26.1126V25.4747H23.6947H22.9912V26.1126V26.7505H22.2876H21.5841V26.1126V25.4747H20.8805H20.177V27.3883V29.3019H30.7302H41.2835V27.3883ZM31.4338 18.2803V14.9131L30.5641 15.6986L29.6944 16.4842L27.7398 16.8397C26.6649 17.0352 25.6914 17.1738 25.5766 17.1477C25.4618 17.1216 25.3005 17.007 25.2181 16.893C25.0742 16.6939 25.0835 16.615 25.4551 14.881L25.8418 13.0762L26.7197 12.259L27.5976 11.4417H25.9524H24.3072L24.3629 12.2988C24.5841 15.7008 22.1719 18.6552 18.4566 19.5326C18.1732 19.5995 17.8112 19.6542 17.6521 19.6542H17.3628V20.6509V21.6476H24.3983H31.4338V18.2803ZM16.2072 10.3184C16.4024 10.1751 16.5916 10.166 19.3606 10.166C21.9601 10.166 22.3004 10.1517 22.2551 10.0448C22.1196 9.72466 21.4572 8.95522 20.9377 8.51467C20.2594 7.93939 19.4587 7.51376 18.5207 7.22978C17.9301 7.051 17.6991 7.02569 16.6592 7.02585C15.6049 7.02601 15.3932 7.04998 14.7684 7.24001C13.0213 7.77138 11.7771 8.74521 10.9792 10.2058C10.0897 11.8343 10.0986 13.5531 11.0055 15.2664C11.3485 15.9143 11.5189 16.1237 12.2073 16.744C13.2288 17.6642 14.2583 18.1668 15.5225 18.3626L15.9117 18.4228L15.9557 14.4468L15.9996 10.4707L16.2072 10.3184ZM18.8271 18.1037C19.7001 17.8164 20.339 17.4343 21.1006 16.744C21.9037 16.0161 22.3659 15.3486 22.7015 14.4317C22.904 13.8783 22.9358 13.6565 22.9411 12.7573C22.9444 12.1872 22.9187 11.658 22.884 11.5812C22.8257 11.4526 22.6081 11.4417 20.0918 11.4417H17.3628V14.9391V18.4365L17.8164 18.3617C18.066 18.3206 18.5207 18.2045 18.8271 18.1037ZM27.3342 15.6249C27.5587 15.5944 27.7598 15.5437 27.7812 15.5123C27.8026 15.4809 27.6288 15.2842 27.3948 15.0753C27.1609 14.8664 26.9502 14.7258 26.9266 14.7629C26.9031 14.8 26.8567 14.9739 26.8236 15.1493C26.7905 15.3247 26.7411 15.5364 26.7139 15.6198C26.6777 15.731 26.6994 15.7593 26.7953 15.7259C26.8673 15.7009 27.1098 15.6554 27.3342 15.6249ZM34.4677 10.3256L39.5677 5.70115L38.6665 4.88406L37.7653 4.06696L32.6437 8.71043L27.522 13.3539L28.3989 14.1519C28.8812 14.5908 29.2965 14.95 29.3218 14.95C29.347 14.95 31.6627 12.869 34.4677 10.3256ZM40.9213 4.46359C41.4192 3.94945 41.4118 3.30834 40.9026 2.8467C40.3682 2.36213 39.5586 2.40393 39.0012 2.9449L38.7855 3.15415L39.6591 3.94914C40.1395 4.38638 40.559 4.74412 40.5911 4.74412C40.6233 4.74412 40.7719 4.61788 40.9213 4.46359ZM8.92015 3.14946V2.51159H9.6237H10.3272V3.14946V3.78732H9.6237H8.92015V3.14946ZM11.7343 3.14946V2.51159H12.4379H13.1415V3.14946V3.78732H12.4379H11.7343V3.14946ZM14.5486 3.14946V2.51159H15.2521H15.9557V3.14946V3.78732H15.2521H14.5486V3.14946Z" fill="#F88500"/>
</g>
<defs>
<clipPath id="clip0_489_2057">
<rect width="42.213" height="38.232" fill="white" transform="translate(0.477539)"/>
</clipPath>
</defs>
</svg>
