<svg width="63" height="57" viewBox="0 0 63 57" fill="none" xmlns="http://www.w3.org/2000/svg">
<path d="M49.2304 35.6583C47.5428 36.1775 45.5022 36.3232 43.6777 36.055L43.0741 35.9662L44.1258 34.0564C46.0316 30.5955 47.2616 28.0002 48.5971 24.6221C49.9174 21.2823 50.84 18.3215 51.5559 15.1277C51.9503 13.368 52.4688 10.5087 52.3854 10.553C52.3657 10.5634 52.1921 11.2009 51.9997 11.9695C49.9681 20.0863 46.0998 28.5983 41.9619 34.0554C41.5004 34.664 41.0956 35.1398 41.0621 35.1127C40.7034 34.8221 39.4392 32.8741 38.8216 31.6607C38.1901 30.4198 37.4981 28.2452 37.3628 27.0767C37.1031 24.8323 37.4078 22.9737 38.3826 20.8583C39.559 18.305 41.362 15.9674 44.5536 12.8575C48.2997 9.20736 49.4412 7.90885 50.6805 5.888C51.5591 4.45526 52.3316 2.52542 52.6642 0.93261C52.7657 0.446645 52.869 0.0367883 52.8937 0.0218204C52.9713 -0.0250768 53.7504 1.45704 54.2008 2.50833C54.8685 4.06662 55.414 5.68983 55.8441 7.39782C58.3492 17.3453 57.6914 27.0134 54.1749 31.9257C53.5477 32.802 52.8128 33.5853 52.1132 34.1232C51.3874 34.6812 49.9935 35.4235 49.2302 35.6582L49.2304 35.6583ZM30.7751 45.3115C27.5135 46.6793 24.5097 46.8822 21.6577 45.9276C18.581 44.8978 15.4496 42.1145 13.5323 38.7059C12.6805 37.1913 12.1762 35.9706 10.9904 32.5525C10.3758 30.7808 9.73734 29.0696 9.51601 28.6008C7.77298 24.9088 5.41122 23.2184 0.985538 22.4953L0.32417 22.3872L0.707622 22.0109C1.29483 21.4347 2.5888 20.3891 3.41143 19.8261C4.65973 18.9718 7.82478 17.4147 9.47922 16.8408C15.5212 14.7452 22.2714 14.2484 28.0187 15.4761C31.2706 16.1709 34.3747 17.5515 36.4188 19.2123L36.9292 19.6269L36.3298 21.104C35.675 22.7174 35.4537 23.5341 35.3349 24.7757C35.075 27.4909 35.9456 30.366 37.8282 33.0101C38.1105 33.4066 38.3347 33.7482 38.3262 33.769C38.3178 33.7898 38.1297 33.635 37.9082 33.425C33.4579 29.2046 28.706 26.4226 23.5259 25.0037C22.2047 24.6419 19.359 24.0979 19.2079 24.1781C19.1877 24.1888 19.8689 24.5017 20.7217 24.8733C24.8475 26.6709 28.2898 28.7495 31.3351 31.2822C32.4356 32.1974 34.356 34.1286 35.2007 35.1697C36.3951 36.6418 37.5819 38.5648 37.9373 39.6036L38.1146 40.1216L37.519 40.7059C35.7002 42.4898 32.8306 44.4496 30.7751 45.3116L30.7751 45.3115ZM38.4692 33.998C38.4277 33.9643 38.4042 33.9108 38.417 33.8791C38.4298 33.8474 38.4775 33.8677 38.5229 33.9242C38.6172 34.0416 38.5823 34.0896 38.4692 33.998L38.4692 33.998Z" fill="#F88500"/>
</svg>
