<svg width="55" height="36" viewBox="0 0 55 36" fill="none" xmlns="http://www.w3.org/2000/svg">
<g clip-path="url(#clip0_480_2044)">
<path d="M11.7628 34.9163C11.7866 34.726 11.8469 34.4084 11.8968 34.2106C11.9468 34.0128 11.9877 33.7551 11.9877 33.6381C11.9877 33.521 12.0173 33.4069 12.0535 33.3845C12.0898 33.3621 12.1194 33.2023 12.1194 33.0293C12.1194 32.8563 12.1416 32.6928 12.1688 32.666C12.2135 32.622 12.3277 32.0366 12.4271 31.3424C12.4478 31.1975 12.4857 31.0641 12.5112 31.0459C12.5368 31.0278 12.5932 30.7759 12.6366 30.486C12.68 30.1961 12.7314 29.8552 12.7509 29.7284C12.7704 29.6016 12.8114 29.4386 12.8422 29.3661C12.8949 29.2417 13.0185 28.589 13.0853 28.0815C13.102 27.9547 13.1411 27.7917 13.1722 27.7192C13.2033 27.6467 13.2467 27.4837 13.2687 27.3569C13.4078 26.5566 13.4758 26.2419 13.5192 26.1985C13.5464 26.1713 13.5683 26.0874 13.568 26.0119C13.5672 25.8148 13.7898 24.9565 13.8485 24.9304C13.8757 24.9183 13.8979 24.8368 13.8979 24.7493C13.8979 24.6617 13.9243 24.59 13.9566 24.59C13.9889 24.59 14.0339 24.5159 14.0567 24.4254C14.0794 24.3348 14.1271 24.2607 14.1626 24.2607C14.1982 24.2607 14.2272 24.2297 14.2272 24.1919C14.2272 24.1294 14.6018 23.6866 14.8043 23.5098C14.85 23.4699 15.0021 23.3261 15.1424 23.1902C15.2826 23.0543 15.417 22.9432 15.4409 22.9432C15.4649 22.9432 15.5644 22.8691 15.6621 22.7785C15.7598 22.6879 15.8746 22.6138 15.9172 22.6138C15.9598 22.6138 16.0046 22.5885 16.0167 22.5575C16.0417 22.4935 16.9587 21.9231 17.356 21.7245C17.5009 21.652 17.6343 21.5779 17.6524 21.5598C17.6892 21.523 18.1193 21.314 19.0027 20.9036C19.3288 20.7522 19.647 20.6007 19.7099 20.567C19.7728 20.5333 19.8691 20.5058 19.924 20.5058C19.9788 20.5058 20.0237 20.4761 20.0237 20.4399C20.0237 20.4037 20.0615 20.374 20.1078 20.374C20.1988 20.374 20.7332 20.1053 21.2093 19.8201C21.3723 19.7225 21.5872 19.608 21.6868 19.5657C21.7865 19.5234 21.868 19.4656 21.868 19.4373C21.868 19.409 21.913 19.3859 21.9681 19.3859C22.0231 19.3859 22.1856 19.3118 22.329 19.2212C22.4725 19.1306 22.6336 19.0565 22.6869 19.0565C22.8105 19.0565 22.921 18.6652 22.9215 18.2257L22.9219 17.8891L24.1075 17.7134V17.3342C24.1075 16.8154 23.9887 16.2897 23.8715 16.2897C23.8202 16.2897 23.7782 16.2601 23.7782 16.2238C23.7782 16.1876 23.7483 16.1579 23.7117 16.1579C23.6085 16.1579 23.2512 15.8173 23.2512 15.7189C23.2512 15.6705 23.2288 15.6309 23.2014 15.6309C23.1167 15.6309 22.7901 14.8168 22.7901 14.6057C22.7901 14.5217 22.7605 14.4346 22.7243 14.4122C22.688 14.3898 22.6584 14.1978 22.6584 13.9855C22.6584 13.5216 22.6157 13.3912 22.4639 13.3912C22.275 13.3912 21.9453 13.1972 21.8131 13.0084C21.661 12.791 21.6116 12.5913 21.5367 11.8908C21.5047 11.591 21.4567 11.3105 21.4301 11.2674C21.3805 11.1872 21.2947 10.788 21.2305 10.3387C21.2095 10.192 21.2251 10.0552 21.2677 10.0126C21.308 9.97229 21.341 9.89194 21.341 9.83408C21.341 9.77622 21.4596 9.61308 21.6045 9.47157C21.9011 9.18192 21.9031 9.17501 21.7754 8.88864C21.7244 8.77447 21.6324 8.53283 21.5708 8.35167C21.5092 8.17052 21.4337 7.96301 21.4029 7.89054C21.2256 7.47236 21.2 7.1775 21.2343 5.9472C21.273 4.55788 21.3247 3.90992 21.4051 3.80623C21.4331 3.77 21.4764 3.60024 21.5012 3.42898C21.5259 3.25772 21.5741 3.10034 21.6083 3.07924C21.6424 3.05814 21.6703 2.96852 21.6703 2.88008C21.6703 2.79164 21.6968 2.71928 21.7291 2.71928C21.7614 2.71928 21.8064 2.64531 21.829 2.5549C21.8517 2.4645 22.0106 2.24799 22.182 2.07377C22.4902 1.76059 22.862 1.59939 23.2761 1.59939C23.413 1.59939 23.4308 1.56866 23.4308 1.33322C23.4308 1.14501 23.4759 1.01911 23.5846 0.903375C23.7751 0.700589 24.2793 0.41362 24.4451 0.41362C24.513 0.41362 24.5685 0.390912 24.5685 0.363152C24.5685 0.31885 25.1162 0.178508 25.8201 0.0424546C26.1743 -0.0260301 27.978 -0.00686666 28.4219 0.0700962C28.9313 0.158423 29.4405 0.275386 29.6075 0.342454C29.68 0.371551 29.8514 0.443929 29.9885 0.503303C30.1256 0.56267 30.2812 0.611248 30.3343 0.611248C30.3874 0.611248 30.4309 0.637433 30.4309 0.669442C30.4309 0.701445 30.4828 0.745048 30.5462 0.766339C30.7579 0.837453 31.3588 1.27592 31.6923 1.60277C32.002 1.90622 32.3933 2.60896 32.5156 3.08162C32.5343 3.15408 32.5741 3.27266 32.6039 3.34512C32.7455 3.68925 32.8351 4.96508 32.8351 6.63892C32.8351 7.61718 32.8203 8.56441 32.8022 8.74386C32.7704 9.05889 32.776 9.0725 32.9668 9.13805C33.2518 9.23597 33.4507 9.49096 33.5004 9.82191C33.548 10.1393 33.4899 10.8724 33.399 11.1032C33.3671 11.1841 33.2901 11.4281 33.2278 11.6455C33.1655 11.8629 33.0887 12.0689 33.0572 12.1033C33.0256 12.1377 32.9998 12.2316 32.9998 12.3119C32.9998 12.3922 32.9775 12.4678 32.9504 12.4799C32.9232 12.492 32.8417 12.6204 32.7692 12.7654C32.6291 13.0456 32.4272 13.2536 32.2917 13.2572C32.2464 13.2584 32.2093 13.2923 32.2093 13.3325C32.2093 13.3763 32.1472 13.3899 32.0537 13.3664C31.9067 13.3295 31.8959 13.3482 31.8585 13.7051C31.7817 14.4366 31.6719 15.0717 31.6116 15.1336C31.5781 15.168 31.5506 15.2643 31.5506 15.3477C31.5506 15.431 31.521 15.4992 31.4848 15.4992C31.4485 15.4992 31.4188 15.5362 31.4186 15.5815C31.4181 15.694 31.0283 16.1051 30.8204 16.2125C30.662 16.2942 30.6542 16.3201 30.7016 16.6077C30.7295 16.777 30.7541 17.096 30.7563 17.3167L30.7602 17.7178L31.2378 17.8011C31.5004 17.8469 31.7524 17.8952 31.7977 17.9084C31.8534 17.9247 31.88 18.0812 31.88 18.3926C31.88 18.9578 31.9581 19.1408 32.2665 19.2973C32.3981 19.3641 32.5206 19.4343 32.5387 19.4533C32.6307 19.5496 32.9417 19.7152 33.0304 19.7152C33.086 19.7152 33.1315 19.7449 33.1315 19.7811C33.1315 19.8173 33.1603 19.847 33.1956 19.847C33.2506 19.847 33.811 20.0834 34.1195 20.2368C34.2266 20.29 35.4374 20.6671 35.865 20.7804C36.01 20.8187 36.1878 20.8733 36.2603 20.9015C36.3327 20.9298 36.5402 21.0034 36.7213 21.065C37.1903 21.2246 38.441 21.7947 38.5327 21.8906C38.5509 21.9096 38.6491 21.9783 38.7512 22.0432C39.0784 22.2516 39.6418 22.7697 39.9489 23.1447C40.1174 23.3504 40.3119 23.9028 40.3115 24.1745C40.3113 24.2901 40.3377 24.4011 40.3701 24.4211C40.4025 24.4411 40.444 24.5688 40.4622 24.7049C40.5044 25.0193 40.6251 25.5062 40.7031 25.677C40.7362 25.7495 40.778 25.8977 40.796 26.0064C40.8618 26.4051 40.9769 26.8657 41.0384 26.9771C41.0732 27.0401 41.1016 27.1646 41.1016 27.254C41.1016 27.3434 41.1291 27.4846 41.1628 27.5678C41.1964 27.651 41.2729 27.9563 41.3328 28.2461C41.3928 28.536 41.469 28.8246 41.5022 28.8875C41.5355 28.9505 41.5627 29.05 41.5627 29.1087C41.5627 29.2496 41.7594 30.1204 41.8292 30.2883C41.8593 30.3608 41.8971 30.5238 41.9132 30.6506C41.9561 30.9874 42.0981 31.6511 42.1598 31.8035C42.1892 31.8759 42.2269 32.039 42.2436 32.1658C42.3104 32.6732 42.4339 33.3259 42.4867 33.4504C42.5509 33.6019 42.6231 34.2581 42.6388 34.8338L42.6495 35.229L11.7194 35.2622L11.7628 34.9163ZM43.3411 30.9683C43.3411 30.8531 43.3139 30.6678 43.2806 30.5565C43.2186 30.3491 43.0875 29.7183 43.0332 29.3661C43.0165 29.2574 42.9789 29.1092 42.9498 29.0367C42.9207 28.9642 42.8453 28.6678 42.7824 28.3779C42.7194 28.0881 42.6454 27.7916 42.6178 27.7192C42.572 27.5987 42.3515 26.7318 42.224 26.1711C42.0993 25.6225 42.0042 25.274 41.9501 25.1674C41.9181 25.1045 41.892 24.9844 41.892 24.9006C41.892 24.8168 41.8632 24.7194 41.828 24.6842C41.7928 24.649 41.7439 24.405 41.7195 24.1419C41.6951 23.8789 41.6498 23.6481 41.6188 23.6289C41.5879 23.6098 41.5626 23.5249 41.5626 23.4402C41.5626 23.1095 41.081 22.3312 40.5417 21.7902C40.2518 21.4995 39.9455 21.2083 39.861 21.1431C39.5666 20.9161 38.859 20.5058 38.7621 20.5058C38.7084 20.5058 38.6644 20.4831 38.6644 20.4554C38.6644 20.4025 38.1836 20.1764 38.0712 20.1764C38.0352 20.1764 38.0057 20.1488 38.0057 20.1151C38.0057 20.0814 37.939 20.0443 37.8575 20.0328C37.7623 20.0192 37.7018 19.9587 37.6883 19.8635C37.6767 19.782 37.6937 19.7153 37.726 19.7153C37.7583 19.7153 37.8534 19.5779 37.9372 19.4101C38.086 19.1121 38.6 18.5295 38.714 18.5295C38.7455 18.5295 38.8288 18.4765 38.899 18.4117C38.9692 18.347 39.123 18.2545 39.2408 18.2061L39.4548 18.1182V17.4833C39.4548 16.7722 39.4321 16.7345 38.9525 16.6479C38.8121 16.6226 38.6677 16.5815 38.6315 16.5567C38.5952 16.5318 38.3878 16.4577 38.1704 16.392C37.953 16.3264 37.7071 16.2468 37.6239 16.2153C37.5407 16.1838 37.4147 16.1579 37.3439 16.1579C37.2732 16.1579 37.2153 16.1321 37.2153 16.1005C37.2153 16.0689 37.103 16.0251 36.9659 16.0031C36.8287 15.9812 36.5693 15.8886 36.3895 15.7974C36.2097 15.7061 36.0255 15.6314 35.9802 15.6312C35.935 15.6312 35.8979 15.6013 35.8979 15.5651C35.8979 15.5288 35.9243 15.4992 35.9566 15.4992C35.9889 15.4992 36.034 15.4251 36.0567 15.3345C36.0794 15.2439 36.1271 15.1698 36.1626 15.1698C36.1982 15.1698 36.2272 15.0957 36.2272 15.0051C36.2272 14.9145 36.2569 14.8404 36.2931 14.8404C36.3293 14.8404 36.359 14.7817 36.359 14.71C36.359 14.6383 36.4072 14.4592 36.466 14.312C36.5909 13.9999 36.5513 13.9097 36.3802 14.1164C35.9769 14.6031 35.2392 15.2552 35.2392 15.1249C35.2392 15.0916 35.2664 15.0362 35.2997 15.0018C35.3982 14.8999 35.8979 13.9025 35.8979 13.8078C35.8979 13.7598 35.9275 13.7205 35.9637 13.7205C36 13.7205 36.0296 13.688 36.0296 13.6481C36.0296 13.5778 36.1775 13.2102 36.2978 12.9817C36.3728 12.8392 36.4933 12.3754 36.5338 12.0736C36.5508 11.9468 36.5895 11.7838 36.6197 11.7113C36.6789 11.5693 36.8107 10.6513 36.8938 9.80092C36.9222 9.51107 36.9733 9.09605 37.0074 8.87866C37.0414 8.66127 37.1049 8.20178 37.1483 7.85758C37.1918 7.51338 37.2521 7.17247 37.2824 7.1C37.3126 7.02754 37.3545 6.83485 37.3753 6.67181C37.4422 6.15009 37.5761 5.49843 37.627 5.44751C37.6541 5.42038 37.6763 5.32861 37.6763 5.24358C37.6763 5.15855 37.7035 5.03751 37.7367 4.97459C37.77 4.91168 37.9248 4.60082 38.0808 4.28381C38.2368 3.96681 38.3875 3.7074 38.4156 3.7074C38.4438 3.7074 38.4668 3.67364 38.4668 3.63239C38.4668 3.53048 39.1377 2.85439 39.2407 2.85255C39.286 2.85169 39.3231 2.82789 39.3231 2.7996C39.3231 2.77131 39.4046 2.71319 39.5042 2.67043C39.6038 2.62767 39.8451 2.50259 40.0403 2.39248C40.2355 2.28237 40.4356 2.19228 40.4849 2.19228C40.5342 2.19228 40.5746 2.166 40.5746 2.13388C40.5746 2.10176 40.6561 2.05943 40.7557 2.03982C41.069 1.97814 41.5237 1.84813 41.6819 1.77497C41.8935 1.67711 43.5863 1.68657 43.6859 1.78617C43.7281 1.82837 43.8302 1.8629 43.9128 1.8629C44.0763 1.8629 44.4304 1.98628 44.9731 2.23231C45.1643 2.31899 45.3496 2.38991 45.3848 2.38991C45.4201 2.38991 45.4489 2.41609 45.4489 2.4481C45.4489 2.4801 45.5008 2.52267 45.5642 2.54268C45.9183 2.65449 46.898 3.45809 46.898 3.63681C46.898 3.67047 46.9358 3.73717 46.982 3.78505C47.1465 3.95559 47.6835 5.13597 47.7275 5.42378C47.7521 5.58485 47.7947 5.74627 47.8221 5.78251C47.8495 5.81874 47.8878 5.98178 47.9072 6.14482C47.9266 6.30787 47.9916 6.72288 48.0515 7.06709C48.2029 7.93599 48.4004 9.27676 48.5466 10.4268C48.678 11.4611 48.8347 12.2662 48.947 12.4845C48.9793 12.5474 49.006 12.6511 49.0062 12.715C49.0064 12.7789 49.0509 12.9161 49.105 13.0199C49.1591 13.1237 49.2034 13.2497 49.2034 13.2999C49.2034 13.3501 49.233 13.3912 49.2693 13.3912C49.3055 13.3912 49.3351 13.4278 49.3351 13.4726C49.3351 13.5173 49.4137 13.7174 49.5097 13.9172C49.6057 14.117 49.7613 14.4435 49.8555 14.6428C49.9497 14.842 50.0555 15.0257 50.0907 15.0509C50.1259 15.0761 50.1361 15.1153 50.1135 15.138C50.0498 15.2016 49.3915 14.6072 48.9792 14.114L48.7879 13.8852L48.835 14.1487C48.9211 14.6314 49.1385 15.2049 49.2719 15.3015C49.2969 15.3196 49.3382 15.4013 49.3637 15.483C49.3984 15.5941 49.3799 15.6416 49.2903 15.6713C49.2244 15.6931 49.0423 15.7683 48.8857 15.8383C48.729 15.9082 48.5135 15.983 48.4067 16.0043C48.3 16.0257 48.1967 16.069 48.1772 16.1005C48.1577 16.1321 48.0689 16.1579 47.98 16.1579C47.8911 16.1579 47.7669 16.1851 47.704 16.2184C47.583 16.2823 46.7221 16.5579 46.2634 16.6795C45.862 16.786 45.8379 16.8412 45.8876 17.5413C45.9299 18.1373 45.936 18.1555 46.1181 18.2242C46.221 18.263 46.3051 18.3179 46.3051 18.3462C46.3051 18.3745 46.3368 18.3977 46.3754 18.3977C46.4538 18.3977 46.8588 18.689 47.0621 18.8917C47.1348 18.9642 47.2536 19.1416 47.3261 19.286C47.3985 19.4304 47.4949 19.5881 47.5401 19.6365C47.5854 19.685 47.6225 19.7477 47.6225 19.776C47.6225 19.8977 48.0259 20.2343 48.2584 20.3066C48.5157 20.3866 48.7656 20.4906 49.2322 20.712C49.3748 20.7797 49.5304 20.8351 49.578 20.8351C49.6255 20.8351 49.6644 20.8642 49.6644 20.8997C49.6644 20.9352 49.7385 20.9829 49.8291 21.0057C49.9196 21.0284 49.9937 21.0692 49.9937 21.0964C49.9937 21.1693 50.6441 21.4938 50.7902 21.4938C50.8593 21.4938 50.9159 21.5167 50.9159 21.5447C50.9159 21.6016 51.4101 21.747 51.789 21.8015C51.9251 21.8211 52.0529 21.8636 52.0729 21.8961C52.0929 21.9285 52.183 21.955 52.273 21.955C52.363 21.955 52.6355 22.0035 52.8784 22.0629C53.3561 22.1795 53.9687 22.572 54.0442 22.8098C54.0674 22.8831 54.1141 22.9431 54.1479 22.9431C54.1817 22.9431 54.2093 22.9876 54.2093 23.0419C54.2093 23.0963 54.2316 23.1409 54.2587 23.1412C54.3234 23.1418 54.5387 23.5213 54.5387 23.6347C54.5387 23.683 54.5733 23.7342 54.6156 23.7483C54.6965 23.7753 54.7685 24.8584 54.8424 27.1592C54.8639 27.8295 54.9081 28.4061 54.9406 28.4405C54.9731 28.4749 54.9998 29.1048 54.9998 29.8404V31.1776H43.3409L43.3411 30.9683ZM0.130994 30.0946C0.130994 29.9337 0.101353 29.7837 0.0651254 29.7613C-0.0171582 29.7105 -0.0236331 28.1322 0.0580833 28.0453C0.0904382 28.0108 0.134577 27.6418 0.156176 27.2251C0.198753 26.4036 0.331769 25.4202 0.410937 25.3417C0.438108 25.3148 0.460339 25.2217 0.460339 25.1349C0.460339 24.9654 0.628318 24.3669 0.728571 24.1792C0.762185 24.1163 0.789686 24.0223 0.789686 23.9704C0.789686 23.9185 0.832865 23.7921 0.885638 23.6896C0.938412 23.587 1.01975 23.4067 1.06639 23.289C1.11303 23.1712 1.16834 23.0749 1.1893 23.0749C1.21026 23.0749 1.29561 22.9383 1.37896 22.7714C1.56946 22.3899 2.38392 21.5593 2.73283 21.3906C2.87774 21.3206 3.00619 21.2411 3.01826 21.2139C3.03034 21.1867 3.06753 21.1645 3.10092 21.1645C3.13431 21.1645 3.31523 21.0904 3.50297 20.9998C3.69071 20.9092 3.88323 20.8351 3.9308 20.8351C3.97836 20.8351 4.01727 20.8058 4.01727 20.77C4.01727 20.7342 4.13649 20.6858 4.28221 20.6625C4.42792 20.6392 4.56306 20.5944 4.58251 20.5629C4.60195 20.5315 4.6758 20.5057 4.74661 20.5057C4.81742 20.5057 4.92683 20.4798 4.98973 20.448C5.05264 20.4163 5.28196 20.3368 5.49932 20.2713C5.71669 20.2058 5.92418 20.1342 5.96041 20.1122C5.99663 20.0902 6.19671 20.0167 6.40502 19.9489C6.61333 19.8811 6.78377 19.8007 6.78377 19.7704C6.78377 19.74 6.85046 19.7143 6.93198 19.7131C7.01349 19.712 7.13772 19.6675 7.20804 19.6143C7.27836 19.5611 7.38951 19.5176 7.45505 19.5176C7.52058 19.5176 7.5742 19.4879 7.5742 19.4517C7.5742 19.4155 7.61906 19.3858 7.6739 19.3858C7.72873 19.3858 7.82507 19.3576 7.88797 19.3231C7.95088 19.2887 8.12091 19.2087 8.26582 19.1454C8.41074 19.0821 8.54412 19.0132 8.56223 18.9922C8.58035 18.9712 8.72855 18.8963 8.89158 18.8259C9.0546 18.7554 9.20281 18.6821 9.22092 18.663C9.26383 18.6177 9.94443 18.2886 10.0937 18.241C10.1571 18.2207 10.209 18.144 10.209 18.0704C10.209 17.9968 10.2356 17.9365 10.2682 17.9365C10.3008 17.9365 10.3433 17.8106 10.3628 17.6566C10.3822 17.5026 10.4463 17.1395 10.5052 16.8496C10.6999 15.892 10.6997 15.9207 10.5121 15.7182C10.4178 15.6166 10.3407 15.496 10.3407 15.4504C10.3407 15.4047 10.3143 15.3674 10.282 15.3674C10.2497 15.3674 10.2046 15.2933 10.1819 15.2027C10.1592 15.1121 10.1115 15.038 10.076 15.038C10.0404 15.038 10.0114 14.9935 10.0114 14.9392C10.0114 14.8848 9.98172 14.8404 9.94549 14.8404C9.90926 14.8404 9.87962 14.7931 9.87962 14.7352C9.87962 14.6774 9.83774 14.5514 9.78656 14.4553C9.60927 14.1222 9.41312 13.644 9.37448 13.4507C9.35312 13.3439 9.30984 13.2406 9.27829 13.2211C9.24674 13.2016 9.22093 13.1105 9.22093 13.0185C9.22093 12.9266 9.17436 12.6912 9.11745 12.4954C9.02359 12.1725 8.99657 12.1394 8.82689 12.1394C8.62159 12.1394 8.32093 11.8434 8.26967 11.5909C8.14685 10.9856 8.09482 10.476 8.08251 9.75775C8.06715 8.86157 8.07042 8.85188 8.47066 8.61019C8.57449 8.54751 8.57805 8.51582 8.5019 8.33197C8.38092 8.03988 8.36165 5.13369 8.4799 5.01512C8.52518 4.96972 8.56223 4.88195 8.56223 4.82008C8.56223 4.4197 9.46411 3.31357 10.0608 2.98214C10.2147 2.89662 10.3407 2.80568 10.3407 2.78004C10.3407 2.75441 10.4148 2.71483 10.5054 2.6921C10.5959 2.66936 10.67 2.62169 10.67 2.58614C10.67 2.5506 10.7145 2.52153 10.7688 2.52153C10.8232 2.52153 10.8677 2.49388 10.8677 2.46009C10.8677 2.4263 10.9217 2.38149 10.9878 2.36052C11.0538 2.33955 11.1659 2.27085 11.2368 2.20786C11.3076 2.14487 11.4685 2.03553 11.5942 1.96488C11.7199 1.89423 11.882 1.78064 11.9545 1.71246C12.0269 1.64428 12.1381 1.56023 12.2015 1.52569C12.3036 1.47007 12.3168 1.49709 12.3168 1.76163C12.3168 1.92595 12.3319 2.06039 12.3505 2.06039C12.369 2.06039 12.6977 1.74683 13.0809 1.36356C13.4641 0.980311 13.796 0.685167 13.8185 0.707617C13.841 0.730101 13.8668 0.939673 13.8759 1.17335C13.885 1.40702 13.9304 1.66513 13.9769 1.74694L14.0614 1.89567L14.0827 1.71451C14.1072 1.5063 14.2283 1.48331 14.5144 1.63257C14.6182 1.6867 14.7442 1.73098 14.7944 1.73098C14.8446 1.73098 14.8857 1.7541 14.8857 1.78235C14.8857 1.81061 15.0339 1.89124 15.215 1.96155C15.3961 2.03184 15.5444 2.10583 15.5444 2.12597C15.5444 2.14611 15.6775 2.22111 15.8401 2.29263C16.0028 2.36415 16.1362 2.44491 16.1365 2.47209C16.1369 2.49926 16.1675 2.52149 16.2047 2.52149C16.2883 2.52149 17.1499 3.05783 17.1801 3.12868C17.1922 3.15704 17.2388 3.18025 17.2837 3.18025C17.4288 3.18025 18.1622 3.94843 18.29 4.23427C18.3143 4.28862 18.3514 4.3479 18.3725 4.36602C18.453 4.43531 18.6409 5.06734 18.6406 5.26793C18.6404 5.38354 18.6738 5.49886 18.7147 5.5242C18.7879 5.56942 18.7681 6.6103 18.6665 8.05509L18.6271 8.61503L18.8642 8.74069C18.9946 8.8098 19.1013 8.90615 19.1013 8.95479C19.1013 9.00343 19.1276 9.04323 19.1597 9.04323C19.2655 9.04323 19.2962 9.59071 19.2355 10.3937C19.2026 10.8285 19.1557 11.2797 19.1313 11.3965C19.0782 11.6503 18.806 11.9418 18.622 11.9418C18.4596 11.9418 18.3158 12.1206 18.313 12.3262C18.3101 12.5376 18.0919 13.353 18.031 13.38C18.0038 13.3921 17.9815 13.468 17.9815 13.5486C17.9815 13.6292 17.938 13.7527 17.8848 13.8231C17.8316 13.8934 17.7872 13.9856 17.786 14.0279C17.7807 14.2243 17.103 15.2564 16.6152 15.811C16.5106 15.9299 16.4917 16.025 16.5168 16.3051C16.5339 16.4958 16.574 16.68 16.606 16.7144C16.638 16.7489 16.6641 16.8801 16.6641 17.0061C16.6641 17.1321 16.713 17.4453 16.7727 17.702L16.8813 18.1688L17.8101 18.6271C18.321 18.8791 18.8379 19.1426 18.9587 19.2125L19.1784 19.3396L18.9257 19.4329C18.7868 19.4842 18.6212 19.5425 18.5578 19.5625C18.4944 19.5824 18.4425 19.6249 18.4425 19.6569C18.4425 19.6889 18.3684 19.7151 18.2779 19.7151C18.1873 19.7151 18.1132 19.7448 18.1132 19.781C18.1132 19.8172 18.0761 19.8475 18.0309 19.8484C17.9856 19.8491 17.7707 19.9374 17.5533 20.0445C17.3359 20.1516 17.121 20.2398 17.0758 20.2407C17.0305 20.2415 16.9934 20.2645 16.9934 20.2919C16.9934 20.3193 16.8971 20.3827 16.7793 20.4327C16.6616 20.4827 16.3807 20.6381 16.1552 20.7781C15.9297 20.9181 15.7259 21.0326 15.7025 21.0326C15.6559 21.0326 14.9402 21.5373 14.7081 21.7337C14.6286 21.801 14.4804 21.9221 14.3788 22.0027C14.0412 22.2706 13.8003 22.5111 13.5025 22.8772C13.3404 23.0765 13.1925 23.2543 13.1739 23.2724C13.1553 23.2905 13.1077 23.3647 13.0683 23.4371C13.0288 23.5096 12.9189 23.7085 12.824 23.8792C12.6088 24.2663 12.3167 25.1028 12.3167 25.3317C12.3167 25.4263 12.2876 25.5801 12.2521 25.6735C12.2166 25.7669 12.1546 26.0282 12.1144 26.2542C12.0346 26.7025 11.9822 26.9528 11.8215 27.6532C11.7634 27.9068 11.6898 28.2329 11.658 28.3778C11.6262 28.5228 11.5524 28.8489 11.494 29.1025C11.4355 29.3561 11.3638 29.697 11.3346 29.8601C11.2295 30.4474 11.879 30.3871 5.65689 30.3871H0.130933L0.130994 30.0946Z" fill="#F88500"/>
</g>
<defs>
<clipPath id="clip0_480_2044">
<rect width="55" height="35.2621" fill="white"/>
</clipPath>
</defs>
</svg>
