<svg width="43" height="43" viewBox="0 0 43 43" fill="none" xmlns="http://www.w3.org/2000/svg">
<g clip-path="url(#clip0_478_2021)">
<path d="M21.5 0C17.333 0 13.2912 1.19384 9.81089 3.45235C9.43069 3.69909 9.3226 4.2072 9.56926 4.58739C9.81601 4.96759 10.3241 5.0756 10.7043 4.82902C13.9179 2.7436 17.6509 1.64122 21.5 1.64122C32.4501 1.64122 41.3588 10.5499 41.3588 21.5C41.3588 32.4501 32.4501 41.3588 21.5 41.3588C10.5499 41.3588 1.64122 32.4501 1.64122 21.5C1.64122 15.9161 4.01269 10.5582 8.14749 6.80013C8.48284 6.49527 8.50753 5.97633 8.20275 5.64089C7.89789 5.30546 7.37895 5.28069 7.04352 5.58563C2.56732 9.65409 0 15.4546 0 21.5C0 33.3552 9.64477 43 21.5 43C33.3552 43 43 33.3552 43 21.5C43 9.64477 33.3552 0 21.5 0Z" fill="#F88500"/>
<path d="M36.1057 11.7477C35.8538 11.3711 35.344 11.2697 34.9674 11.5219C34.5907 11.7738 34.4896 12.2836 34.7417 12.6602C36.4934 15.2788 37.4194 18.3355 37.4194 21.5C37.4194 30.2782 30.2777 37.4198 21.4995 37.4198C12.7213 37.4198 5.5797 30.2782 5.5797 21.5C5.5797 12.7218 12.7213 5.58019 21.4995 5.58019C25.6871 5.58019 29.6412 7.19286 32.6335 10.1211C32.9575 10.4383 33.4771 10.4326 33.7939 10.1086C34.111 9.78478 34.1053 9.26517 33.7814 8.94821C30.4805 5.71792 26.1188 3.93896 21.4995 3.93896C11.8163 3.93896 3.93848 11.8168 3.93848 21.5C3.93848 31.1832 11.8163 39.0611 21.4995 39.0611C31.1828 39.0611 39.0606 31.1832 39.0606 21.5C39.0606 18.0095 38.0387 14.6371 36.1057 11.7477Z" fill="#F88500"/>
<path d="M21.5 8.97205C18.7957 8.97205 16.2207 9.82012 14.0531 11.4247C13.6888 11.6944 13.6122 12.2082 13.8818 12.5725C14.1516 12.937 14.6655 13.0135 15.0295 12.7438C16.9125 11.35 19.1499 10.6133 21.5 10.6133C27.503 10.6133 32.3867 15.4971 32.3867 21.5C32.3867 26.5069 28.9991 30.8504 24.1487 32.0624C23.709 32.1723 23.4417 32.6178 23.5515 33.0575C23.6447 33.4305 23.9794 33.6794 24.3471 33.6794C24.4129 33.6794 24.48 33.6714 24.5468 33.6548C30.1292 32.2597 34.028 27.2615 34.028 21.5C34.028 14.5919 28.408 8.97205 21.5 8.97205Z" fill="#F88500"/>
<path d="M14.6129 29.9322C12.0708 27.8534 10.6129 24.78 10.6129 21.5C10.6129 19.2302 11.3042 17.0554 12.6122 15.2108C12.8743 14.8411 12.7871 14.3289 12.4174 14.0668C12.0478 13.8045 11.5355 13.8919 11.2734 14.2616C9.76751 16.3851 8.97168 18.8882 8.97168 21.5C8.97168 25.2744 10.6491 28.8109 13.574 31.2027C13.7265 31.3274 13.9104 31.3881 14.093 31.3881C14.3307 31.3881 14.5665 31.2854 14.7287 31.087C15.0156 30.736 14.9637 30.219 14.6129 29.9322Z" fill="#F88500"/>
<path d="M28.6119 20.6794C28.1586 20.6794 27.7913 21.0467 27.7913 21.5C27.7913 24.9691 24.9691 27.7914 21.5 27.7914C18.0308 27.7914 15.2086 24.9691 15.2086 21.5C15.2086 18.0309 18.0308 15.2087 21.5 15.2087C21.9533 15.2087 22.3206 14.8414 22.3206 14.388C22.3206 13.9348 21.9533 13.5674 21.5 13.5674C17.1259 13.5674 13.5674 17.1259 13.5674 21.5C13.5674 25.8741 17.1259 29.4326 21.5 29.4326C25.874 29.4326 29.4325 25.8741 29.4325 21.5C29.4325 21.0467 29.0652 20.6794 28.6119 20.6794Z" fill="#F88500"/>
<path d="M21.5002 18.1629C19.6602 18.1629 18.1631 19.66 18.1631 21.5C18.1631 23.34 19.6602 24.8371 21.5002 24.8371C23.3402 24.8371 24.8373 23.34 24.8373 21.5C24.8373 19.66 23.3402 18.1629 21.5002 18.1629ZM21.5002 23.1959C20.565 23.1959 19.8043 22.4352 19.8043 21.5C19.8043 20.5648 20.565 19.8041 21.5002 19.8041C22.4354 19.8041 23.1961 20.5648 23.1961 21.5C23.1961 22.4352 22.4354 23.1959 21.5002 23.1959Z" fill="#F88500"/>
</g>
<defs>
<clipPath id="clip0_478_2021">
<rect width="43" height="43" fill="white"/>
</clipPath>
</defs>
</svg>
