<svg width="41" height="41" viewBox="0 0 41 41" fill="none" xmlns="http://www.w3.org/2000/svg">
<path d="M28.5 20.5483C28.5 16.129 24.9194 12.5483 20.5 12.5483C16.0806 12.5483 12.5 16.129 12.5 20.5483C12.5 24.5412 15.4255 27.8509 19.25 28.4516V22.8609H17.2177V20.5483H19.25V18.7858C19.25 16.7809 20.4435 15.6735 22.2716 15.6735C23.1471 15.6735 24.0626 15.8296 24.0626 15.8296V17.7974H23.0535C22.06 17.7974 21.75 18.4141 21.75 19.0467V20.5483H23.9687L23.6139 22.8609H21.75V28.4516C25.5745 27.8509 28.5 24.5412 28.5 20.5483Z" fill="white" fill-opacity="0.5"/>
<path d="M1 1H35.5C37.9853 1 40 3.01472 40 5.5V40H5.5C3.01472 40 1 37.9853 1 35.5V1Z" stroke="white" stroke-opacity="0.25"/>
</svg>
