<svg width="41" height="41" viewBox="0 0 41 41" fill="none" xmlns="http://www.w3.org/2000/svg">
<path d="M20.5018 16.3956C18.2316 16.3956 16.4005 18.2281 16.4005 20.5001C16.4005 22.772 18.2316 24.6046 20.5018 24.6046C22.7719 24.6046 24.6031 22.772 24.6031 20.5001C24.6031 18.2281 22.7719 16.3956 20.5018 16.3956ZM20.5018 23.1685C19.0347 23.1685 17.8354 21.9718 17.8354 20.5001C17.8354 19.0283 19.0312 17.8316 20.5018 17.8316C21.9724 17.8316 23.1682 19.0283 23.1682 20.5001C23.1682 21.9718 21.9688 23.1685 20.5018 23.1685ZM25.7274 16.2277C25.7274 16.7599 25.2991 17.185 24.7708 17.185C24.239 17.185 23.8142 16.7564 23.8142 16.2277C23.8142 15.699 24.2426 15.2703 24.7708 15.2703C25.2991 15.2703 25.7274 15.699 25.7274 16.2277ZM28.4438 17.1993C28.3831 15.9169 28.0904 14.7809 27.1516 13.845C26.2165 12.9091 25.0814 12.6162 23.7999 12.5519C22.4793 12.4769 18.5207 12.4769 17.2001 12.5519C15.9222 12.6126 14.7871 12.9055 13.8484 13.8414C12.9096 14.7774 12.6205 15.9133 12.5562 17.1958C12.4813 18.5175 12.4813 22.4791 12.5562 23.8008C12.6169 25.0832 12.9096 26.2192 13.8484 27.1551C14.7871 28.091 15.9186 28.384 17.2001 28.4483C18.5207 28.5233 22.4793 28.5233 23.7999 28.4483C25.0814 28.3875 26.2165 28.0946 27.1516 27.1551C28.0868 26.2192 28.3795 25.0832 28.4438 23.8008C28.5187 22.4791 28.5187 18.5211 28.4438 17.1993ZM26.7376 25.219C26.4592 25.9191 25.9202 26.4585 25.217 26.7407C24.164 27.1587 21.6654 27.0622 20.5018 27.0622C19.3381 27.0622 16.836 27.1551 15.7866 26.7407C15.0869 26.4621 14.548 25.9227 14.266 25.219C13.8484 24.1652 13.9447 21.6646 13.9447 20.5001C13.9447 19.3355 13.8519 16.8314 14.266 15.7812C14.5444 15.081 15.0834 14.5416 15.7866 14.2594C16.8395 13.8414 19.3381 13.9379 20.5018 13.9379C21.6654 13.9379 24.1676 13.845 25.217 14.2594C25.9166 14.538 26.4556 15.0774 26.7376 15.7812C27.1552 16.835 27.0588 19.3355 27.0588 20.5001C27.0588 21.6646 27.1552 24.1687 26.7376 25.219Z" fill="white" fill-opacity="0.5"/>
<path d="M1 1H35.5C37.9853 1 40 3.01472 40 5.5V40H5.5C3.01472 40 1 37.9853 1 35.5V1Z" stroke="white" stroke-opacity="0.25"/>
</svg>
