<svg width="41" height="41" viewBox="0 0 41 41" fill="none" xmlns="http://www.w3.org/2000/svg">
<path d="M26.8554 17.241C26.8655 17.3831 26.8655 17.5253 26.8655 17.6674C26.8655 22.0024 23.566 26.9974 17.5356 26.9974C15.6777 26.9974 13.9518 26.4593 12.5 25.5253C12.764 25.5558 13.0178 25.5659 13.2919 25.5659C14.8249 25.5659 16.236 25.0482 17.363 24.1649C15.9213 24.1344 14.7132 23.1903 14.2969 21.8908C14.5 21.9212 14.703 21.9415 14.9163 21.9415C15.2107 21.9415 15.5051 21.9009 15.7792 21.8299C14.2767 21.5253 13.1497 20.2055 13.1497 18.6116V18.571C13.5863 18.8146 14.0939 18.9669 14.6319 18.9872C13.7487 18.3984 13.17 17.3933 13.17 16.2562C13.17 15.6471 13.3324 15.0887 13.6167 14.6014C15.2309 16.5913 17.6574 17.8907 20.3782 18.0329C20.3274 17.7892 20.2969 17.5355 20.2969 17.2816C20.2969 15.4745 21.7589 14.0024 23.5761 14.0024C24.5203 14.0024 25.3731 14.3984 25.9721 15.038C26.7132 14.8959 27.4238 14.6217 28.0533 14.2461C27.8096 15.0075 27.2919 15.6471 26.6117 16.0532C27.2716 15.9822 27.9112 15.7994 28.5 15.5456C28.0534 16.1953 27.495 16.774 26.8554 17.241Z" fill="white" fill-opacity="0.5"/>
<path d="M1 1H35.5C37.9853 1 40 3.01472 40 5.5V40H5.5C3.01472 40 1 37.9853 1 35.5V1Z" stroke="white" stroke-opacity="0.25"/>
</svg>
