<svg width="41" height="41" viewBox="0 0 41 41" fill="none" xmlns="http://www.w3.org/2000/svg">
<path d="M1 1H35.5C37.9853 1 40 3.01472 40 5.5V40H5.5C3.01472 40 1 37.9853 1 35.5V1Z" fill="#F88500"/>
<path d="M30.6467 14.9772C30.7927 14.478 30.6467 14.1106 29.9441 14.1106H27.6192C27.0271 14.1106 26.7548 14.4261 26.6087 14.7775C26.6087 14.7775 25.4246 17.6967 23.751 19.5895C23.2102 20.1366 22.9615 20.3123 22.6655 20.3123C22.5195 20.3123 22.2945 20.1366 22.2945 19.6375V14.9772C22.2945 14.3782 22.1287 14.1106 21.6392 14.1106H17.9842C17.6131 14.1106 17.3921 14.3901 17.3921 14.6497C17.3921 15.2168 18.2289 15.3485 18.3157 16.9459V20.4122C18.3157 21.1709 18.1815 21.3107 17.8855 21.3107C17.096 21.3107 15.1777 18.3795 14.0409 15.0251C13.812 14.3742 13.587 14.1106 12.991 14.1106H10.6661C10.003 14.1106 9.86877 14.4261 9.86877 14.7775C9.86877 15.4005 10.6582 18.4953 13.5436 22.5846C15.4659 25.376 18.1736 26.8895 20.6367 26.8895C22.1168 26.8895 22.2984 26.554 22.2984 25.975C22.2984 23.3074 22.1642 23.0558 22.9063 23.0558C23.2497 23.0558 23.8418 23.2315 25.2233 24.5773C26.8021 26.1746 27.0627 26.8895 27.9468 26.8895H30.2717C30.9348 26.8895 31.2703 26.554 31.0769 25.8911C30.6348 24.4974 27.6468 21.6302 27.5126 21.4385C27.1692 20.9912 27.2679 20.7915 27.5126 20.3922C27.5166 20.3882 30.3546 16.3469 30.6467 14.9772Z" fill="white"/>
<path d="M1 1H35.5C37.9853 1 40 3.01472 40 5.5V40H5.5C3.01472 40 1 37.9853 1 35.5V1Z" stroke="#F88500"/>
</svg>
