<svg width="136" height="27" viewBox="0 0 136 27" fill="none" xmlns="http://www.w3.org/2000/svg">
<rect x="0.5" y="0.726402" width="135" height="25.6857" rx="12.8428" fill="#C4C4C4" fill-opacity="0.25"/>
<g clip-path="url(#clip0_68_17)">
<path d="M23.4991 9.4567C21.2289 9.4567 19.3978 11.2893 19.3978 13.5612C19.3978 15.8331 21.2289 17.6657 23.4991 17.6657C25.7693 17.6657 27.6004 15.8331 27.6004 13.5612C27.6004 11.2893 25.7693 9.4567 23.4991 9.4567ZM23.4991 16.2296C22.0321 16.2296 20.8327 15.0329 20.8327 13.5612C20.8327 12.0894 22.0285 10.8927 23.4991 10.8927C24.9697 10.8927 26.1655 12.0894 26.1655 13.5612C26.1655 15.0329 24.9661 16.2296 23.4991 16.2296ZM28.7248 9.28881C28.7248 9.82107 28.2964 10.2462 27.7681 10.2462C27.2363 10.2462 26.8115 9.8175 26.8115 9.28881C26.8115 8.76012 27.2399 8.33145 27.7681 8.33145C28.2964 8.33145 28.7248 8.76012 28.7248 9.28881ZM31.4411 10.2605C31.3804 8.97802 31.0877 7.84206 30.149 6.90613C29.2138 5.97021 28.0787 5.67729 26.7973 5.61299C25.4766 5.53797 21.5181 5.53797 20.1974 5.61299C18.9195 5.67371 17.7844 5.96664 16.8457 6.90256C15.9069 7.83848 15.6178 8.97445 15.5535 10.2569C15.4786 11.5786 15.4786 15.5402 15.5535 16.8619C15.6142 18.1444 15.9069 19.2803 16.8457 20.2162C17.7844 21.1522 18.9159 21.4451 20.1974 21.5094C21.5181 21.5844 25.4766 21.5844 26.7973 21.5094C28.0787 21.4487 29.2138 21.1557 30.149 20.2162C31.0842 19.2803 31.3768 18.1444 31.4411 16.8619C31.5161 15.5402 31.5161 11.5822 31.4411 10.2605ZM29.7349 18.2801C29.4565 18.9803 28.9175 19.5197 28.2143 19.8019C27.1613 20.2198 24.6627 20.1234 23.4991 20.1234C22.3355 20.1234 19.8333 20.2162 18.7839 19.8019C18.0843 19.5232 17.5453 18.9838 17.2633 18.2801C16.8457 17.2263 16.942 14.7257 16.942 13.5612C16.942 12.3966 16.8492 9.89251 17.2633 8.84228C17.5417 8.14212 18.0807 7.60272 18.7839 7.32051C19.8369 6.90256 22.3355 6.99901 23.4991 6.99901C24.6627 6.99901 27.1649 6.90613 28.2143 7.32051C28.9139 7.59914 29.4529 8.13855 29.7349 8.84228C30.1525 9.89609 30.0562 12.3966 30.0562 13.5612C30.0562 14.7257 30.1525 17.2299 29.7349 18.2801Z" fill="white" fill-opacity="0.75"/>
</g>
<g clip-path="url(#clip1_68_17)">
<path d="M64.2779 7.6817C64.424 7.18253 64.2779 6.81514 63.5753 6.81514H61.2504C60.6584 6.81514 60.386 7.13061 60.24 7.48203C60.24 7.48203 59.0558 10.4012 57.3822 12.2941C56.8414 12.8412 56.5928 13.0169 56.2967 13.0169C56.1507 13.0169 55.9257 12.8412 55.9257 12.342V7.6817C55.9257 7.08269 55.7599 6.81514 55.2705 6.81514H51.6154C51.2444 6.81514 51.0233 7.09467 51.0233 7.35424C51.0233 7.92131 51.8601 8.05309 51.9469 9.65044V13.1167C51.9469 13.8755 51.8127 14.0152 51.5167 14.0152C50.7273 14.0152 48.8089 11.0841 47.6722 7.72962C47.4432 7.0787 47.2182 6.81514 46.6222 6.81514H44.2973C43.6342 6.81514 43.5 7.13061 43.5 7.48203C43.5 8.105 44.2894 11.1999 47.1748 15.2891C49.0971 18.0805 51.8048 19.594 54.2679 19.594C55.7481 19.594 55.9296 19.2585 55.9296 18.6795C55.9296 16.0119 55.7954 15.7603 56.5375 15.7603C56.8809 15.7603 57.473 15.936 58.8545 17.2818C60.4334 18.8792 60.6939 19.594 61.578 19.594H63.9029C64.5661 19.594 64.9016 19.2585 64.7082 18.5956C64.2661 17.2019 61.2781 14.3347 61.1439 14.143C60.8005 13.6958 60.8991 13.4961 61.1439 13.0967C61.1478 13.0927 63.9858 9.05144 64.2779 7.6817Z" fill="white" fill-opacity="0.75"/>
</g>
<g clip-path="url(#clip2_68_17)">
<path d="M92.5 12.4192C92.5 7.99988 88.9194 4.41923 84.5 4.41923C80.0806 4.41923 76.5 7.99988 76.5 12.4192C76.5 16.4121 79.4255 19.7218 83.25 20.3225V14.7318H81.2177V12.4192H83.25V10.6567C83.25 8.65181 84.4435 7.54439 86.2716 7.54439C87.1471 7.54439 88.0626 7.70052 88.0626 7.70052V9.66826H87.0535C86.06 9.66826 85.75 10.285 85.75 10.9176V12.4192H87.9687L87.6139 14.7318H85.75V20.3225C89.5745 19.7218 92.5 16.4121 92.5 12.4192Z" fill="white" fill-opacity="0.75"/>
</g>
<g clip-path="url(#clip3_68_17)">
<path d="M118.855 9.65781C118.866 9.79993 118.866 9.94209 118.866 10.0842C118.866 14.4192 115.566 19.4142 109.536 19.4142C107.678 19.4142 105.952 18.8761 104.5 17.9421C104.764 17.9726 105.018 17.9827 105.292 17.9827C106.825 17.9827 108.236 17.465 109.363 16.5817C107.921 16.5512 106.713 15.6071 106.297 14.3076C106.5 14.338 106.703 14.3583 106.916 14.3583C107.211 14.3583 107.505 14.3177 107.779 14.2467C106.277 13.9421 105.15 12.6223 105.15 11.0284V10.9878C105.586 11.2314 106.094 11.3837 106.632 11.404C105.749 10.8152 105.17 9.81009 105.17 8.67302C105.17 8.06389 105.332 7.50552 105.617 7.0182C107.231 9.00805 109.657 10.3075 112.378 10.4497C112.327 10.206 112.297 9.95225 112.297 9.69843C112.297 7.8913 113.759 6.41923 115.576 6.41923C116.52 6.41923 117.373 6.81517 117.972 7.45477C118.713 7.31264 119.424 7.03852 120.053 6.66289C119.81 7.42433 119.292 8.06393 118.612 8.46999C119.272 8.39896 119.911 8.21618 120.5 7.96239C120.053 8.61211 119.495 9.19077 118.855 9.65781Z" fill="white" fill-opacity="0.75"/>
</g>
<defs>
<clipPath id="clip0_68_17">
<rect width="16" height="18.3" fill="white" transform="translate(15.5 4.41923)"/>
</clipPath>
<clipPath id="clip1_68_17">
<rect width="21" height="24" fill="white" transform="translate(43.5 1.56923)"/>
</clipPath>
<clipPath id="clip2_68_17">
<rect width="16" height="18.3" fill="white" transform="translate(76.5 4.41923)"/>
</clipPath>
<clipPath id="clip3_68_17">
<rect width="16" height="18.3" fill="white" transform="translate(104.5 4.41923)"/>
</clipPath>
</defs>
</svg>
