<svg width="123" height="28" viewBox="0 0 123 28" fill="none" xmlns="http://www.w3.org/2000/svg">
<path d="M25.7158 18.8284H26.4238L29.9638 27.3484H29.0758L27.9718 24.6844H24.1438L23.0518 27.3484H22.1518L25.7158 18.8284ZM27.7798 24.0244L26.0638 19.8124L24.3238 24.0244H27.7798ZM37.0172 21.8164C36.4652 21.8324 35.9852 21.9844 35.5772 22.2724C35.1692 22.5604 34.8812 22.9564 34.7132 23.4604V27.3484H33.8972V21.0964H34.6652V22.5964C34.8972 22.1164 35.2092 21.7404 35.6012 21.4684C35.9932 21.1964 36.4132 21.0604 36.8612 21.0604C36.9252 21.0604 36.9772 21.0644 37.0172 21.0724V21.8164ZM40.2358 24.2044C40.2358 23.7644 40.3118 23.3484 40.4638 22.9564C40.6158 22.5644 40.8278 22.2244 41.0998 21.9364C41.3798 21.6404 41.7118 21.4084 42.0958 21.2404C42.4798 21.0724 42.9038 20.9884 43.3678 20.9884C43.9598 20.9884 44.4758 21.1244 44.9158 21.3964C45.3558 21.6604 45.6878 22.0204 45.9118 22.4764L45.1198 22.7284C44.9438 22.4084 44.6958 22.1604 44.3758 21.9844C44.0638 21.8004 43.7158 21.7084 43.3318 21.7084C43.0118 21.7084 42.7118 21.7724 42.4318 21.9004C42.1598 22.0284 41.9198 22.2044 41.7118 22.4284C41.5118 22.6444 41.3518 22.9044 41.2318 23.2084C41.1198 23.5124 41.0638 23.8444 41.0638 24.2044C41.0638 24.5564 41.1238 24.8884 41.2438 25.2004C41.3638 25.5124 41.5278 25.7844 41.7358 26.0164C41.9438 26.2404 42.1838 26.4204 42.4558 26.5564C42.7358 26.6844 43.0318 26.7484 43.3438 26.7484C43.5438 26.7484 43.7398 26.7204 43.9318 26.6644C44.1318 26.6084 44.3158 26.5324 44.4838 26.4364C44.6518 26.3324 44.7958 26.2164 44.9158 26.0884C45.0358 25.9604 45.1198 25.8244 45.1678 25.6804L45.9718 25.9204C45.8838 26.1444 45.7558 26.3524 45.5878 26.5444C45.4198 26.7284 45.2198 26.8924 44.9878 27.0364C44.7638 27.1724 44.5118 27.2764 44.2318 27.3484C43.9598 27.4284 43.6758 27.4684 43.3798 27.4684C42.9238 27.4684 42.5038 27.3844 42.1198 27.2164C41.7358 27.0404 41.4038 26.8044 41.1238 26.5084C40.8438 26.2044 40.6238 25.8564 40.4638 25.4644C40.3118 25.0724 40.2358 24.6524 40.2358 24.2044ZM55.3897 27.3484H54.5737V23.8564C54.5737 23.1444 54.4497 22.6124 54.2017 22.2604C53.9617 21.9084 53.6057 21.7324 53.1337 21.7324C52.9017 21.7324 52.6697 21.7804 52.4377 21.8764C52.2137 21.9644 52.0017 22.0884 51.8017 22.2484C51.6017 22.4084 51.4257 22.5964 51.2737 22.8124C51.1297 23.0284 51.0217 23.2644 50.9497 23.5204V27.3484H50.1337V18.5884H50.9497V22.5124C51.1977 22.0404 51.5417 21.6684 51.9817 21.3964C52.4217 21.1244 52.8977 20.9884 53.4097 20.9884C53.7697 20.9884 54.0737 21.0564 54.3217 21.1924C54.5697 21.3204 54.7737 21.5044 54.9337 21.7444C55.0937 21.9764 55.2097 22.2604 55.2817 22.5964C55.3537 22.9244 55.3897 23.2884 55.3897 23.6884V27.3484ZM60.0098 27.3484V21.0964H60.8258V27.3484H60.0098ZM60.0098 19.7884V18.5884H60.8258V19.7884H60.0098ZM68.5031 27.0484C68.4551 27.0724 68.3831 27.1044 68.2871 27.1444C68.1991 27.1844 68.0951 27.2244 67.9751 27.2644C67.8551 27.3044 67.7191 27.3404 67.5671 27.3724C67.4151 27.4044 67.2551 27.4204 67.0871 27.4204C66.9111 27.4204 66.7431 27.3964 66.5831 27.3484C66.4231 27.3004 66.2831 27.2284 66.1631 27.1324C66.0431 27.0284 65.9471 26.9004 65.8751 26.7484C65.8031 26.5964 65.7671 26.4204 65.7671 26.2204V21.7444H64.9031V21.0964H65.7671V18.9844H66.5831V21.0964H68.0231V21.7444H66.5831V25.9924C66.5991 26.2244 66.6791 26.3964 66.8231 26.5084C66.9751 26.6124 67.1471 26.6644 67.3391 26.6644C67.5711 26.6644 67.7751 26.6284 67.9511 26.5564C68.1271 26.4764 68.2391 26.4204 68.2871 26.3884L68.5031 27.0484ZM74.9503 27.4684C74.4943 27.4684 74.0743 27.3844 73.6903 27.2164C73.3143 27.0404 72.9863 26.8044 72.7063 26.5084C72.4263 26.2044 72.2063 25.8564 72.0463 25.4644C71.8943 25.0724 71.8183 24.6524 71.8183 24.2044C71.8183 23.7644 71.8943 23.3524 72.0463 22.9684C72.2063 22.5764 72.4223 22.2364 72.6943 21.9484C72.9743 21.6524 73.3063 21.4204 73.6903 21.2524C74.0743 21.0764 74.4903 20.9884 74.9383 20.9884C75.3943 20.9884 75.8103 21.0764 76.1863 21.2524C76.5703 21.4204 76.8983 21.6524 77.1703 21.9484C77.4423 22.2444 77.6543 22.5844 77.8063 22.9684C77.9583 23.3524 78.0343 23.7604 78.0343 24.1924C78.0343 24.2564 78.0343 24.3204 78.0343 24.3844C78.0343 24.4484 78.0303 24.4924 78.0223 24.5164H72.6703C72.6943 24.8524 72.7703 25.1644 72.8983 25.4524C73.0343 25.7324 73.2063 25.9764 73.4143 26.1844C73.6223 26.3924 73.8583 26.5564 74.1223 26.6764C74.3943 26.7884 74.6823 26.8444 74.9863 26.8444C75.1863 26.8444 75.3863 26.8164 75.5863 26.7604C75.7863 26.7044 75.9703 26.6284 76.1383 26.5324C76.3063 26.4364 76.4583 26.3204 76.5943 26.1844C76.7303 26.0404 76.8343 25.8844 76.9063 25.7164L77.6143 25.9084C77.5183 26.1404 77.3823 26.3524 77.2063 26.5444C77.0303 26.7284 76.8263 26.8924 76.5943 27.0364C76.3623 27.1724 76.1063 27.2764 75.8263 27.3484C75.5463 27.4284 75.2543 27.4684 74.9503 27.4684ZM77.2543 23.8924C77.2303 23.5564 77.1503 23.2524 77.0143 22.9804C76.8863 22.7004 76.7183 22.4604 76.5103 22.2604C76.3103 22.0604 76.0743 21.9044 75.8023 21.7924C75.5383 21.6804 75.2543 21.6244 74.9503 21.6244C74.6463 21.6244 74.3583 21.6804 74.0863 21.7924C73.8143 21.9044 73.5743 22.0604 73.3663 22.2604C73.1663 22.4604 73.0023 22.7004 72.8743 22.9804C72.7543 23.2604 72.6823 23.5644 72.6583 23.8924H77.2543ZM81.7413 24.2044C81.7413 23.7644 81.8173 23.3484 81.9693 22.9564C82.1213 22.5644 82.3333 22.2244 82.6053 21.9364C82.8853 21.6404 83.2173 21.4084 83.6013 21.2404C83.9853 21.0724 84.4093 20.9884 84.8733 20.9884C85.4653 20.9884 85.9813 21.1244 86.4213 21.3964C86.8613 21.6604 87.1933 22.0204 87.4173 22.4764L86.6253 22.7284C86.4493 22.4084 86.2013 22.1604 85.8813 21.9844C85.5693 21.8004 85.2213 21.7084 84.8373 21.7084C84.5173 21.7084 84.2173 21.7724 83.9373 21.9004C83.6653 22.0284 83.4253 22.2044 83.2173 22.4284C83.0173 22.6444 82.8573 22.9044 82.7373 23.2084C82.6253 23.5124 82.5693 23.8444 82.5693 24.2044C82.5693 24.5564 82.6293 24.8884 82.7493 25.2004C82.8693 25.5124 83.0333 25.7844 83.2413 26.0164C83.4493 26.2404 83.6893 26.4204 83.9613 26.5564C84.2413 26.6844 84.5373 26.7484 84.8493 26.7484C85.0493 26.7484 85.2453 26.7204 85.4373 26.6644C85.6373 26.6084 85.8213 26.5324 85.9893 26.4364C86.1573 26.3324 86.3013 26.2164 86.4213 26.0884C86.5413 25.9604 86.6253 25.8244 86.6733 25.6804L87.4773 25.9204C87.3893 26.1444 87.2613 26.3524 87.0933 26.5444C86.9253 26.7284 86.7253 26.8924 86.4933 27.0364C86.2693 27.1724 86.0173 27.2764 85.7373 27.3484C85.4653 27.4284 85.1813 27.4684 84.8853 27.4684C84.4293 27.4684 84.0093 27.3844 83.6253 27.2164C83.2413 27.0404 82.9093 26.8044 82.6293 26.5084C82.3493 26.2044 82.1293 25.8564 81.9693 25.4644C81.8173 25.0724 81.7413 24.6524 81.7413 24.2044ZM94.6392 27.0484C94.5912 27.0724 94.5192 27.1044 94.4232 27.1444C94.3352 27.1844 94.2312 27.2244 94.1112 27.2644C93.9912 27.3044 93.8552 27.3404 93.7032 27.3724C93.5512 27.4044 93.3912 27.4204 93.2232 27.4204C93.0472 27.4204 92.8792 27.3964 92.7192 27.3484C92.5592 27.3004 92.4192 27.2284 92.2992 27.1324C92.1792 27.0284 92.0832 26.9004 92.0112 26.7484C91.9392 26.5964 91.9032 26.4204 91.9032 26.2204V21.7444H91.0392V21.0964H91.9032V18.9844H92.7192V21.0964H94.1592V21.7444H92.7192V25.9924C92.7352 26.2244 92.8152 26.3964 92.9592 26.5084C93.1112 26.6124 93.2832 26.6644 93.4752 26.6644C93.7072 26.6644 93.9112 26.6284 94.0872 26.5564C94.2632 26.4764 94.3752 26.4204 94.4232 26.3884L94.6392 27.0484ZM100.495 27.4684C99.8147 27.4684 99.3067 27.2444 98.9707 26.7964C98.6427 26.3404 98.4787 25.6644 98.4787 24.7684V21.0964H99.2947V24.6244C99.2947 26.0404 99.7787 26.7484 100.747 26.7484C100.987 26.7484 101.223 26.7084 101.455 26.6284C101.687 26.5484 101.899 26.4324 102.091 26.2804C102.291 26.1284 102.467 25.9484 102.619 25.7404C102.779 25.5324 102.907 25.2964 103.003 25.0324V21.0964H103.819V26.2924C103.819 26.5164 103.915 26.6284 104.107 26.6284V27.3484C104.011 27.3644 103.931 27.3724 103.867 27.3724C103.811 27.3724 103.771 27.3724 103.747 27.3724C103.555 27.3644 103.399 27.2964 103.279 27.1684C103.159 27.0404 103.099 26.8684 103.099 26.6524V25.9324C102.827 26.4204 102.455 26.8004 101.983 27.0724C101.519 27.3364 101.023 27.4684 100.495 27.4684ZM111.664 21.8164C111.112 21.8324 110.632 21.9844 110.224 22.2724C109.816 22.5604 109.528 22.9564 109.36 23.4604V27.3484H108.544V21.0964H109.312V22.5964C109.544 22.1164 109.856 21.7404 110.248 21.4684C110.64 21.1964 111.06 21.0604 111.508 21.0604C111.572 21.0604 111.624 21.0644 111.664 21.0724V21.8164ZM118.014 27.4684C117.558 27.4684 117.138 27.3844 116.754 27.2164C116.378 27.0404 116.05 26.8044 115.77 26.5084C115.49 26.2044 115.27 25.8564 115.11 25.4644C114.958 25.0724 114.882 24.6524 114.882 24.2044C114.882 23.7644 114.958 23.3524 115.11 22.9684C115.27 22.5764 115.486 22.2364 115.758 21.9484C116.038 21.6524 116.37 21.4204 116.754 21.2524C117.138 21.0764 117.554 20.9884 118.002 20.9884C118.458 20.9884 118.874 21.0764 119.25 21.2524C119.634 21.4204 119.962 21.6524 120.234 21.9484C120.506 22.2444 120.718 22.5844 120.87 22.9684C121.022 23.3524 121.098 23.7604 121.098 24.1924C121.098 24.2564 121.098 24.3204 121.098 24.3844C121.098 24.4484 121.094 24.4924 121.086 24.5164H115.734C115.758 24.8524 115.834 25.1644 115.962 25.4524C116.098 25.7324 116.27 25.9764 116.478 26.1844C116.686 26.3924 116.922 26.5564 117.186 26.6764C117.458 26.7884 117.746 26.8444 118.05 26.8444C118.25 26.8444 118.45 26.8164 118.65 26.7604C118.85 26.7044 119.034 26.6284 119.202 26.5324C119.37 26.4364 119.522 26.3204 119.658 26.1844C119.794 26.0404 119.898 25.8844 119.97 25.7164L120.678 25.9084C120.582 26.1404 120.446 26.3524 120.27 26.5444C120.094 26.7284 119.89 26.8924 119.658 27.0364C119.426 27.1724 119.17 27.2764 118.89 27.3484C118.61 27.4284 118.318 27.4684 118.014 27.4684ZM120.318 23.8924C120.294 23.5564 120.214 23.2524 120.078 22.9804C119.95 22.7004 119.782 22.4604 119.574 22.2604C119.374 22.0604 119.138 21.9044 118.866 21.7924C118.602 21.6804 118.318 21.6244 118.014 21.6244C117.71 21.6244 117.422 21.6804 117.15 21.7924C116.878 21.9044 116.638 22.0604 116.43 22.2604C116.23 22.4604 116.066 22.7004 115.938 22.9804C115.818 23.2604 115.746 23.5644 115.722 23.8924H120.318Z" fill="white" fill-opacity="0.45"/>
<path d="M27.4308 0.994487H29.5898L30.9498 4.98949L32.3098 0.994487H34.4858L32.4288 6.48549L33.9588 10.3445L37.3758 0.960486H39.9258L35.0128 13.0305H33.0408L30.9498 7.96449L28.8588 13.0305H26.8868L22.0078 0.960486H24.5238L27.9578 10.3445L29.4538 6.48549L27.4308 0.994487ZM45.8651 13.1155C44.9811 13.1155 44.1764 12.9455 43.4511 12.6055C42.7371 12.2542 42.1194 11.7952 41.5981 11.2285C41.0881 10.6505 40.6914 9.99315 40.4081 9.25649C40.1247 8.51982 39.9831 7.76615 39.9831 6.99549C39.9831 6.19082 40.1304 5.42015 40.4251 4.68349C40.7311 3.94682 41.1447 3.29515 41.6661 2.72849C42.1987 2.16182 42.8277 1.71415 43.5531 1.38549C44.2784 1.04549 45.0661 0.875486 45.9161 0.875486C46.7887 0.875486 47.5821 1.05682 48.2961 1.41949C49.0214 1.77082 49.6391 2.23549 50.1491 2.81349C50.6591 3.39149 51.0557 4.04882 51.3391 4.78549C51.6224 5.52215 51.7641 6.27015 51.7641 7.02949C51.7641 7.83415 51.6167 8.60482 51.3221 9.34149C51.0274 10.0668 50.6194 10.7128 50.0981 11.2795C49.5767 11.8348 48.9534 12.2825 48.2281 12.6225C47.5027 12.9512 46.7151 13.1155 45.8651 13.1155ZM42.3631 6.99549C42.3631 7.51682 42.4424 8.02115 42.6011 8.50849C42.7597 8.99582 42.9864 9.42649 43.2811 9.80049C43.5871 10.1745 43.9554 10.4748 44.3861 10.7015C44.8281 10.9282 45.3267 11.0415 45.8821 11.0415C46.4487 11.0415 46.9474 10.9282 47.3781 10.7015C47.8201 10.4635 48.1884 10.1518 48.4831 9.76649C48.7891 9.38115 49.0157 8.95049 49.1631 8.47449C49.3217 7.98715 49.4011 7.49415 49.4011 6.99549C49.4011 6.47415 49.3161 5.96982 49.1461 5.48249C48.9874 4.99515 48.7551 4.56449 48.4491 4.19049C48.1544 3.81649 47.7861 3.52182 47.3441 3.30649C46.9134 3.07982 46.4261 2.96649 45.8821 2.96649C45.3154 2.96649 44.8111 3.08549 44.3691 3.32349C43.9271 3.55015 43.5587 3.85615 43.2641 4.24149C42.9694 4.61549 42.7427 5.04615 42.5841 5.53349C42.4367 6.00949 42.3631 6.49682 42.3631 6.99549ZM58.7147 13.1155C57.8307 13.1155 57.026 12.9455 56.3007 12.6055C55.5867 12.2542 54.969 11.7952 54.4477 11.2285C53.9377 10.6505 53.541 9.99315 53.2577 9.25649C52.9743 8.51982 52.8327 7.76615 52.8327 6.99549C52.8327 6.19082 52.98 5.42015 53.2747 4.68349C53.5807 3.94682 53.9943 3.29515 54.5157 2.72849C55.0483 2.16182 55.6773 1.71415 56.4027 1.38549C57.128 1.04549 57.9157 0.875486 58.7657 0.875486C59.6383 0.875486 60.4317 1.05682 61.1457 1.41949C61.871 1.77082 62.4887 2.23549 62.9987 2.81349C63.5087 3.39149 63.9053 4.04882 64.1887 4.78549C64.472 5.52215 64.6137 6.27015 64.6137 7.02949C64.6137 7.83415 64.4663 8.60482 64.1717 9.34149C63.877 10.0668 63.469 10.7128 62.9477 11.2795C62.4263 11.8348 61.803 12.2825 61.0777 12.6225C60.3523 12.9512 59.5647 13.1155 58.7147 13.1155ZM55.2127 6.99549C55.2127 7.51682 55.292 8.02115 55.4507 8.50849C55.6093 8.99582 55.836 9.42649 56.1307 9.80049C56.4367 10.1745 56.805 10.4748 57.2357 10.7015C57.6777 10.9282 58.1763 11.0415 58.7317 11.0415C59.2983 11.0415 59.797 10.9282 60.2277 10.7015C60.6697 10.4635 61.038 10.1518 61.3327 9.76649C61.6387 9.38115 61.8653 8.95049 62.0127 8.47449C62.1713 7.98715 62.2507 7.49415 62.2507 6.99549C62.2507 6.47415 62.1657 5.96982 61.9957 5.48249C61.837 4.99515 61.6047 4.56449 61.2987 4.19049C61.004 3.81649 60.6357 3.52182 60.1937 3.30649C59.763 3.07982 59.2757 2.96649 58.7317 2.96649C58.165 2.96649 57.6607 3.08549 57.2187 3.32349C56.7767 3.55015 56.4083 3.85615 56.1137 4.24149C55.819 4.61549 55.5923 5.04615 55.4337 5.53349C55.2863 6.00949 55.2127 6.49682 55.2127 6.99549ZM66.4133 13.0305V0.960486H70.7993C71.7853 0.960486 72.6466 1.11915 73.3833 1.43649C74.1313 1.75382 74.7546 2.18449 75.2533 2.72849C75.7519 3.27249 76.1259 3.91282 76.3753 4.64949C76.6246 5.37482 76.7493 6.15115 76.7493 6.97849C76.7493 7.89649 76.6076 8.72949 76.3243 9.47749C76.0523 10.2142 75.6556 10.8488 75.1343 11.3815C74.6129 11.9028 73.9839 12.3108 73.2473 12.6055C72.5219 12.8888 71.7059 13.0305 70.7993 13.0305H66.4133ZM74.3863 6.97849C74.3863 6.40049 74.3069 5.86782 74.1483 5.38049C73.9896 4.89315 73.7573 4.47382 73.4513 4.12249C73.1453 3.77115 72.7656 3.49915 72.3123 3.30649C71.8703 3.11382 71.3659 3.01749 70.7993 3.01749H68.7593V10.9735H70.7993C71.3773 10.9735 71.8873 10.8715 72.3293 10.6675C72.7826 10.4635 73.1566 10.1858 73.4513 9.83449C73.7573 9.47182 73.9896 9.04682 74.1483 8.55949C74.3069 8.07215 74.3863 7.54515 74.3863 6.97849ZM87.0448 3.01749H83.1858V13.0305H80.8568V3.01749H76.9978V0.960486H87.0448V3.01749ZM96.9242 10.9735V13.0305H88.5432V0.960486H96.7712V3.01749H90.8892V5.92449H95.9722V7.82849H90.8892V10.9735H96.9242ZM97.7731 6.91049C97.7731 6.17382 97.9034 5.44849 98.1641 4.73449C98.4361 4.00915 98.8271 3.36315 99.3371 2.79649C99.8471 2.22982 100.47 1.77082 101.207 1.41949C101.944 1.06815 102.782 0.892486 103.723 0.892486C104.834 0.892486 105.791 1.13615 106.596 1.62349C107.412 2.11082 108.018 2.74549 108.415 3.52749L106.613 4.76849C106.454 4.42849 106.262 4.14515 106.035 3.91849C105.808 3.68049 105.565 3.49349 105.304 3.35749C105.043 3.22149 104.771 3.12515 104.488 3.06849C104.205 3.00049 103.927 2.96649 103.655 2.96649C103.066 2.96649 102.55 3.08549 102.108 3.32349C101.677 3.56149 101.315 3.87315 101.02 4.25849C100.737 4.63249 100.521 5.06315 100.374 5.55049C100.227 6.02649 100.153 6.50249 100.153 6.97849C100.153 7.51115 100.238 8.02682 100.408 8.52549C100.578 9.01282 100.816 9.44349 101.122 9.81749C101.439 10.1915 101.813 10.4918 102.244 10.7185C102.686 10.9452 103.168 11.0585 103.689 11.0585C103.961 11.0585 104.244 11.0245 104.539 10.9565C104.834 10.8885 105.111 10.7808 105.372 10.6335C105.644 10.4862 105.893 10.2992 106.12 10.0725C106.347 9.83449 106.528 9.55115 106.664 9.22249L108.585 10.3275C108.392 10.7808 108.115 11.1832 107.752 11.5345C107.401 11.8745 106.998 12.1635 106.545 12.4015C106.103 12.6395 105.627 12.8208 105.117 12.9455C104.607 13.0702 104.108 13.1325 103.621 13.1325C102.76 13.1325 101.972 12.9512 101.258 12.5885C100.544 12.2258 99.9264 11.7555 99.4051 11.1775C98.8951 10.5882 98.4928 9.92515 98.1981 9.18849C97.9148 8.44049 97.7731 7.68115 97.7731 6.91049ZM120.307 0.960486V13.0305H117.978V7.87949H112.504V13.0305H110.158V0.960486H112.504V5.83949H117.978V0.960486H120.307Z" fill="white"/>
<path fill-rule="evenodd" clip-rule="evenodd" d="M10.0078 0.684616H0.0078125V9.28291C0.0078125 12.0443 2.24639 14.2829 5.00781 14.2829H15.0078V5.68462C15.0078 2.92319 12.7692 0.684616 10.0078 0.684616ZM10.0078 2.49772H2.00781V9.4698C2.00781 11.1267 3.35096 12.4698 5.00781 12.4698H13.0078V5.49772C13.0078 3.84087 11.6647 2.49772 10.0078 2.49772Z" fill="#F88500"/>
</svg>
